<?xml version="1.0" encoding="utf-8"?>
<!-- Generator: Adobe Illustrator 10.0, SVG Export Plug-In . SVG Version: 3.0.0 Build 76)  -->
<!DOCTYPE svg PUBLIC "-//W3C//DTD SVG 1.0//EN"    "http://www.w3.org/TR/2001/REC-SVG-20010904/DTD/svg10.dtd" [
	<!ENTITY ns_flows "http://ns.adobe.com/Flows/1.0/">
	<!ENTITY ns_svg "http://www.w3.org/2000/svg">
	<!ENTITY ns_xlink "http://www.w3.org/1999/xlink">
]>
<svg  xmlns="&ns_svg;" xmlns:xlink="&ns_xlink;" xmlns:a="http://ns.adobe.com/AdobeSVGViewerExtensions/3.0/"
	 width="176" height="208" viewBox="0 0 320.5 243.1" overflow="visible"
	 xml:space="preserve">
	<g id="Layer_1">
		<g id="g5680">
			<path id="floor" fill="#45633C" d="M0,205.1h320v38H0V205.1z"/>
			<path id="wall" fill="#F6F3D2" d="M2.2,0h318.4v205.2H2.2V0z"/>
			<path id="whiteboard" fill="#F8FBF9" stroke="#9F7800" stroke-width="2.8629" d="M17.2,48.8h169.6v128.6H17.2V48.8z"/>
			<path id="stocks" fill="#F8E1F4" stroke="#000000" stroke-width="0.625" d="M259.6,207.1
				c-0.2-6.1,2.8-19.2,3.1-27.2c0.3-8.1-6.6-30-5.4-34.5c2.5-9,10.3-6.7,10.4-1.9c2.2,9.2,8,29.4,8.7,38.7
				c0.7,8.9-8.8,32.7-9.7,41.7h-12.2c-1.2-10.3-13-32-12.7-42.2c0.2-8.4,1.4-27.8,3.1-36.1c0.4-2.1,9.3-8.4,12.2,0
				c1.4,4.2-1.9,26-1.5,34.5C256,188.5,259.2,201.1,259.6,207.1z"/>
			<path id="shoes" fill="#FB171C" d="M252.4,217.8c5.6,6.6,12.4,3.9,16.8,0
				c5.4,4.2,17,5.4,16.3,12.7c-10.3-1.4-16.1-1.2-26.5-2.5c-11.2,1.9-15.8,2.2-27,4.1C233.6,223.4,244.8,220.8,252.4,217.8z"/>
			<path id="path3560" fill="#FFC2AD" stroke="#000000" stroke-width="0.5261" d="M248.6,84.6l2.5-18.2
				l13.4,0.5l1.5,18.7L248.6,84.6z"/>
			<path id="path646" fill="#9F2155" stroke="#000000" stroke-width="0.4532" d="M238.5,69.2c0,0,10.8-6,14.8-6c4,0,21.6,4,22.1,5.3
				c0.6,1.3,4-12,1.1-22c-2.8-10-12.5-25.3-19.3-24c-6.8,1.3-21,10.7-21.6,16C235.1,43.9,236.8,70.5,238.5,69.2z"/>
			<path id="path551" fill="#FFC2AD" stroke="#000000" stroke-width="0.4532" d="M259.8,19.8
				c-1.3-0.5-7.4-0.5-10.4,1c-3,1.5-6.1,4.6-7.4,9.7c-1.3,5.1-3,13.3-0.4,23.4c2.6,10.2,7.8,19.4,11.7,20.9c3.9,1.5,7.4,0,9.6-1.5
				c2.2-1.5,6.5-10.7,7.8-14.8s4.3-16.8,3-21.4C270.6,22.4,261.5,19.3,259.8,19.8z"/>
			<path id="path584" fill="#00FF79" stroke="#000000" stroke-width="0.6434" d="M239.5,31.8
				c-0.3,10.8,3.5,13.7,4.9,13.2c1.9-0.7,2.2-1.7,2.5-4.3c0.3-2.6,0.7-6.8-0.4-10.2C245.3,27,240.6,28.3,239.5,31.8z"/>
			<path id="path585" stroke="#000000" stroke-width="0.6434" d="M243.1,32.7c0,0-1.8-0.2-2,2.1
				c-0.1,2.3-0.2,1.8,0.9,3.4c0.7,1.6,1.9,2.4,2.6,0.9c0.9-2.4,0.2-5.1-0.4-5.9C243.8,32.9,243.3,32.9,243.1,32.7z"/>
			<path id="path592" fill="#00FF79" stroke="#000000" stroke-width="0.6434" d="M257.2,27.6
				c-2.6,9.9,0.3,14.9,1.7,15.3c1.9,0.5,2.4-0.2,3.3-2.4c0.8-2.2,2.1-5.9,1.8-9.8C263.6,26.8,259,25.1,257.2,27.6z"/>
			<path id="path596" stroke="#000000" stroke-width="0.6434" d="M260.5,31.2c0,0-1.6-1.5-2.3,0.5
				s-0.6,1.5,0,3.8c0.3,2,1.1,3.5,2.2,2.7c0.2-0.2,0.3-0.4,0.5-0.7c0.9-1.6,0.8-4,0.5-5C261.1,31.8,260.7,31.5,260.5,31.2z"/>
			<path id="path606" fill="none" stroke="#000000" stroke-width="0.6434" d="M249.9,39.2c0,0,0.3,3.4-0.2,5.4
				c-0.6,2.1-0.8,2.2-0.7,3.6c0.1,1.3,0.3,2.1,0.6,2.6s0.2,0.4,0.2,0.4"/>
			<path id="path609" fill="#CCAA18" stroke="#000000" stroke-width="0.6434" d="M254.7,20.5
				c0,0,4.6-1.2,6.8,0.5c2.2,1.6,2.6,1.8,4.8,4.4s2.2,5.1,2.2,5.1s-0.8-1.6-3.5-4.4c-2.7-2.8-5.2-4.1-6.7-3.5s-2.5,1.4-3,0
				C254.7,21.2,254.8,20.5,254.7,20.5z"/>
			<path id="path611" fill="#CCAA18" stroke="#000000" stroke-width="0.6434" d="M234.5,28.3
				c0,0,1.2,0.9,2.5-1.2c1.2-2.1,2.9-2.1,4.6-2.3c1.8-0.2,3-0.5,4.2-1.2c1.2-0.7,0.7-0.9,0.3-1.6c-0.4-0.7,1-1.2-1.6-0.7
				c-2.9,1.8-5.2,1.6-7.1,2.5c-1.4,1.4-1,2.1-1.9,3C234.5,27.9,234.5,29.2,234.5,28.3z"/>
			<g id="g643">
				<path id="path641" fill="#FF0000" stroke="#000000" stroke-width="0.9212" d="M246,59.9
					c0.1-0.2,1.7,1.1,3-0.1s0-3.5,1.3-3.8c0.9,1.9,2.8,0.5,3.7,0c1.3,1.3,7.4-1.2,7.4-1.2S257.6,66,255.1,67c-2.6,1-6.2-0.7-5.2-2.3
					C247.9,63.5,246,60.3,246,59.9z"/>
				<path id="path642" fill="#FF0000" stroke="#000000" stroke-width="0.9212" d="M248.4,62.5
					c0,0,1.4,1,3.3,0.6s7.3-4.3,7.5-4.5"/>
			</g>
			<path id="path648" fill="#FFC2AD" stroke="#000000" stroke-width="0.6434" d="M271.7,25.6
				c0.1,2.8-0.9,0.7,0.7-0.6c1-2.1,2.7-1.9,2.7,0.6c0,2.4,0.4,1.3-0.6,5.4c-1,4.1-0.8,5.8-1.9,6s-1.1-0.4-1.2-0.4
				c-0.1-0.2-0.3-2.4-0.3-2.4"/>
			<path id="path719" fill="#0000FF" stroke="#000000" stroke-width="0.6434" d="M272,35.6
				c-0.6,0.8-1,1.8-0.7,3.4c0.8,1.1,1.1,2.1,1.8,1.5c0.8-0.7,0.7-1.5,0.7-2.8C273.6,35.6,273.2,35.3,272,35.6z"/>
			<path id="hairhair" fill="#F158D6" stroke="#000000" stroke-width="0.4532" d="M239.5,34.7
				c2-2.1,6.8-3.3,10.2-4s3.4-10,3.4-10s0,8,1.7,9.3s13.1,0,15.3,3.3c2.3,3.3,4,2.7,2.3,13.3s-0.6,14.7-0.6,14.7s0,29.3,6.2-2
				c6.2-31.3-9.1-44.3-18.2-49c-6.2-1.1-11.1-2-19.6,7.4c-6.9,9.8-7.7,20.1-7.1,36.7c3.5,18,9.9,19.7,9.9,19.7s0.2-1,1.4-5.7
				c1-4.5-3.1-12.2-4.8-20.8S238.4,36.3,239.5,34.7z"/>
			<g id="question">
				<path id="path975" fill="#FFFFFF" stroke="#C0C0C0" stroke-width="3" stroke-linejoin="round" d="
					M63.8,27c3.7,27.5,158.8,27.9,160.3,0.1C221.4-3.2,63.7-1.5,63.8,27z"/>
				<path id="path976" fill="#FFFFFF" stroke="#C0C0C0" stroke-width="3" stroke-linejoin="round" d="
					M168.6,47.3c0.9,5.6,41.4,5.6,41.8-0.1C209.7,41,168.6,41.5,168.6,47.3z"/>
				<path id="path977" fill="#FFFFFF" stroke="#C0C0C0" stroke-width="3" stroke-linejoin="round" d="
					M199.6,51.3c0.3,1.9,12.6,1.9,12.7,0C212.1,49.2,199.6,49.3,199.6,51.3z"/>
			</g>
			<text transform="matrix(0.786 0 0 1 89.6611 35.7363)" x="0" y="0" font-family="Helvetica" font-size="28">Shapes ???</text>
			<g id="g5671">

					<path id="path4804" fill="#FFC2AC" stroke="#000000" stroke-width="0.3125" stroke-linecap="round" stroke-linejoin="round" d="
					M214.4,124.4l-9.3,2.1c-0.3,0.1-1.2-0.1-1.9-0.2c-0.9-0.2-2.5,0.7-2.9-0.3c-0.5-1.2,0.2-1.6,0.7-2.2c-0.9,0.3-1.5,0.4-2-0.5
					c-0.4-0.7-0.1-1.5,0.7-1.9c-0.9,0.2-1.7-0.2-2-1c-0.3-1.1-0.2-1.7,1-2.4c-1.4,0.2-1.9,0-2.2-1.3c-0.2-1.4,1.9-2.2,3.1-2.7
					c1.6-0.7,3.9-2,5.4-1l5.8,3.9l4.9-1.3l-1.4,9"/>
				<path id="path1566" fill="none" stroke="#000000" stroke-linecap="round" d="M158.6,79l51.7,43"/>
				<path id="path4182" fill="#FFC2AC" stroke="#000000" stroke-width="0.3125" d="M211.8,114
					c-1.9,0.9-3.7-3-5.8-3.8c-1.7-0.6-4.6,0-5.5-0.5c-0.9-0.6-1.7-3.2-1.9-3.2c-2.4-0.6-2.4,5.4,1,7.2c0.6,0.3,2.3,1,4.1,0.5
					c0.1,3.9,1,7.8,7.6,7.3l9.4-0.7l-0.2-10.8L211.8,114z"/>
				<g id="g4809">

						<path id="path4808" fill="#FFC2AC" stroke="#000000" stroke-width="0.25" stroke-linecap="round" d="
						M200.9,123.8c0.5,0.1,1.2,0,1.6-0.2c0.5-0.4,1.8-0.7,2.1,0c0.3,0.6-0.8,2-1.4,2.5c-0.3,0.2-0.8,0.4-1.3,0.4"/>

						<path id="path4807" fill="#FFC2AC" stroke="#000000" stroke-width="0.25" stroke-linecap="round" d="
						M199.9,121c0.5,0.1,1.4-0.1,1.7-0.2c0.8-0.3,2-0.2,2.5,0.7c0.4,0.9-0.7,1.7-1.8,2.2c-0.4,0.2-0.9,0.3-1.4,0.3"/>

						<path id="path4806" fill="#FFC2AC" stroke="#000000" stroke-width="0.25" stroke-linecap="round" d="
						M198.8,118c0.5,0.1,1.3,0,1.7-0.1c0.8-0.3,2.3-0.8,2.9,0.8c0.6,1.6-1.2,2.1-2.3,2.6c-0.4,0.2-0.9,0.1-1.3,0.1"/>

						<path id="path4805" fill="#FFC2AC" stroke="#000000" stroke-width="0.25" stroke-linecap="round" d="
						M198.1,114.8c0.5,0.1,1.1,0.3,1.5,0.1c0.8-0.3,2.1-0.2,2.5,0.7c0.4,0.9-0.7,1.9-1.9,2.4c-0.4,0.2-0.9,0.1-1.3,0.1"/>
				</g>
			</g>
			<path id="dress"  fill="#010000" d="M224.9,174.5c5.1-15.4,13-35.2,15.3-50.9
				c1.5-10.4,0.8-15.3-0.5-26c-2.2,9-5.3,13.9-10.2,20.9c-3.8,5.5-12.9,6.8-19.3,10.2c0.7-5.3,1.4-10.5,2-15.8
				c3.2-1.9,7.6-2.7,9.7-5.6c5.4-7.6,7.2-18.7,12.7-26c2.2-2.9,7.1-3.1,10.7-4.6c7.8,6.3,18.2,5.4,26.5-1c3.6,2,8.2,3,10.7,6.1
				c6.7,8.6,16,19.3,16.8,29c0.6,7.7-7,16.6-11.2,24.4c-3.1-1.4-7.6-3.7-10.7-5.1c2.5-5.9,8-12,7.6-17.8c-0.4-6.4-6.4-12.6-9.7-18.8
				c-2,9.3-7.5,18.9-6.1,28c2.3,14.9,16.1,35.8,21.9,50.4C266,170.4,247.5,173.8,224.9,174.5z"/>

				<path id="path4875" fill="#FFC2AC" stroke="#000000" stroke-width="0.3125" stroke-linejoin="round" d="
				M278.6,130.8c-0.4,1.8-1.5,2.8-2.7,3.7c-1.9,1.5-3.8,2.5-5.2,4.3c-2.5,3.2-4.4,5.6-2.9,7c1.2,1.2,3.6-1.4,5.8-4.9
				c-2.7,5-9,9.9-7.3,11.6c1.7,1.7,3.4-1.6,6.8-5.7c-2.9,4.1-6.7,7-4.8,8.8c1.8,1.7,4.5-3.7,6.9-6.8c-1.4,2.8-4.9,5.5-3.1,6.9
				c1.7,1.3,2.7-2.8,5.3-5.6c-1.5,2.6-2.9,4.7-1.2,5.7c1.8,1.1,3.8-7.7,5.4-11.6l5.1-9.6"/>
		</g>
	</g>
<g id ="thebug" >
<g transform="translate(118.999,53.08) scale(0.346,0.445)">
<g transform="translate(-240.007,-36.429) scale(0.615,0.547)">
<animateTransform attributeName="transform" type="translate" additive="replace" fill="freeze" values="-406.009,-83.303;-406.009,-83.303" begin="0s" />
<animateTransform attributeName="transform" type="scale" additive="sum" fill="freeze" values="0.615,0.547;0.615,0.547" begin="0s" />
<animateTransform attributeName="transform" type="translate" additive="sum" fill="freeze" values="270.017,85.805;270.017,85.805" begin="0s" />
<g transform="translate(-22,-41.499)">
<animateTransform attributeName="transform" type="translate" additive="replace" values="-291.229,-127.69;-154.229,-142.19;-136.23,-214.187;6.263,-199.187;103.758,-224.686;142.756,-166.189;319.747,-197.687;409.742,-157.189;367.745,-104.692;418.742,-82.193;372.244,-46.195;414.242,21.302;382.744,132.296;312.247,216.292;276.249,171.294;235.751,211.792;147.256,181.794;36.261,220.792;-64.234,208.792;-155.729,147.295;-112.232,46.8;-103.232,-61.194" fill="freeze" keyTimes="0;0.05;0.106;0.144;0.17;0.249;0.339;0.362;0.399;0.505;0.528;0.56;0.632;0.653;0.726;0.746;0.8;0.848;0.89;0.922;0.966;1" begin="0s" dur="6.08s" />
<animateTransform attributeName="transform" type="translate" additive="sum" fill="freeze" values="269.230,86.191;269.230,86.191" begin="0s" />
<g transform="matrix(0.999 -0.061 0.062 0.999 3.553 -14.453)">
<animateTransform attributeName="transform" type="translate" additive="replace" values="-237.792,-114.89;-254.277,-122.066;-237.792,-114.89" fill="freeze" keyTimes="0;0.375;1" begin="0s" dur="0.08s" repeatCount="indefinite" />
<animateTransform attributeName="transform" type="rotate" additive="sum" values="-3.503;-33.061;-3.503" fill="freeze" keyTimes="0;0.375;1" begin="0s" dur="0.08s" repeatCount="indefinite" />
<animateTransform attributeName="transform" type="translate" additive="sum" fill="freeze" values="234.757,114.997;234.757,114.997" begin="0s" />
<g>
<path transform="matrix(-0.9 0.436 0.436 0.901 -218.5 -138.999)" fill="#CFFAFF" stroke="black" fill-rule="evenodd" d="M0,0C41,5,48,11,48,11L61,27L30,32C30,32,-41,-5,0,0z" />
<polyline transform="translate(-206.5,-143)" fill="#CFFAFF" stroke="black" stroke-width="0.25" fill-rule="evenodd" points="0,0 -28,20 -25,28 -36,45" />
<polyline transform="translate(-234.5,-124)" fill="#CFFAFF" stroke="black" stroke-width="0.25" fill-rule="evenodd" points="0,0 -11,6 -18,24" />
<polyline transform="translate(-211.5,-128)" fill="#CFFAFF" stroke="black" stroke-width="0.25" fill-rule="evenodd" points="0,0 -13,6 -23,29" />
</g>
</g>
<g transform="matrix(0.973 0.233 -0.232 0.973 -29.729 64.636)">
<animateTransform attributeName="transform" type="translate" additive="replace" values="-299.236,-97.127;-293.417,-112.254;-299.236,-97.127" fill="freeze" keyTimes="0;0.375;1" begin="0s" dur="0.08s" repeatCount="indefinite" />
<animateTransform attributeName="transform" type="rotate" additive="sum" values="13.459;47.493;13.459" fill="freeze" keyTimes="0;0.375;1" begin="0s" dur="0.08s" repeatCount="indefinite" />
<animateTransform attributeName="transform" type="translate" additive="sum" fill="freeze" values="299.754,94.598;299.754,94.598" begin="0s" />
<path transform="matrix(0.959 -0.285 0.286 0.959 -327.5 -103)" fill="#CFFAFF" stroke="black" fill-rule="evenodd" d="M0,0C41,5,48,11,48,11L61,27L30,32C30,32,-41,-5,0,0z" />
<path transform="translate(-339.5,-99)" fill="#CFFAFF" stroke="black" stroke-width="0.25" fill-rule="evenodd" d="M0,0L28,2C29,2,29,2,29,2L41,-3L69,7" />
<path transform="translate(-309.5,-97)" fill="#CFFAFF" stroke="black" stroke-width="0.25" fill-rule="evenodd" d="M0,0C0,1,6,6,6,6L24,11" />
</g>
<g transform="translate(2.964,-31.117)">
<path transform="matrix(0.968 -0.253 0.188 0.716 -286.752 -47.025)" fill="#4B6551" stroke="black" fill-rule="evenodd" d="M-7,-1C-7,-1,-8.394,-19.126,22.606,-18.126C53.606,-17.126,49,1,49,1" />
<g transform="translate(-0.74,30.007)">
<g transform="translate(1.482)">
<g>
<g transform="matrix(0.853 -0.523 0.524 0.853 -24.19 -104.747)">
<animateTransform attributeName="transform" type="translate" additive="replace" fill="freeze" values="-236.574,-77.696;-236.574,-77.696" begin="0s" />
<animateTransform attributeName="transform" type="rotate" additive="sum" values="-31.548;-52.223;-31.548" fill="freeze" keyTimes="0;0.48;1" begin="0s" dur="0.25s" repeatCount="indefinite" />
<animateTransform attributeName="transform" type="translate" additive="sum" fill="freeze" values="195.147,88.071;195.147,88.071" begin="0s" />
<polyline transform="translate(-191.781,-87.882) scale(-1,1)" fill="none" stroke="black" stroke-width="2" fill-rule="evenodd" points="0,0 -9,6 -6,17 -12,21 -14,40" />
<polyline transform="translate(-195.289,-88.746)" fill="none" stroke="black" stroke-width="4" fill-rule="evenodd" points="0,0 11.647,7.765 8.959,18.217 15.231,22.398" />
</g>
<g transform="translate(5)">
<animateTransform attributeName="transform" type="translate" additive="replace" fill="freeze" values="-295.947,-67.56;-295.947,-67.56" begin="0s" />
<animateTransform attributeName="transform" type="rotate" additive="sum" values="0;28.577;0" fill="freeze" keyTimes="0;0.48;1" begin="0s" dur="0.25s" repeatCount="indefinite" />
<animateTransform attributeName="transform" type="translate" additive="sum" fill="freeze" values="300.948,67.561;300.948,67.561" begin="0s" />
<polyline transform="matrix(0.995 -0.106 0.107 0.995 -296.5 -72)" fill="none" stroke="black" stroke-width="2" fill-rule="evenodd" points="0,0 -9,6 -7.882,14.794 -12,21 -26.607,35.635" />
<polyline transform="translate(-308.5,-48)" fill="none" stroke="black" stroke-width="4" fill-rule="evenodd" points="0,0 6,-7 4,-17 8,-21" />
</g>
<g transform="translate(-444.333,-31.562) scale(-0.693,0.761)">
<animateTransform attributeName="transform" type="translate" additive="replace" fill="freeze" values="-235.55,-83.013;-235.55,-83.013" begin="0s" />
<animateTransform attributeName="transform" type="rotate" additive="sum" values="0;-36.298;0" fill="freeze" keyTimes="0;0.48;1" begin="0s" dur="0.25s" repeatCount="indefinite" />
<animateTransform attributeName="transform" type="scale" additive="sum" fill="freeze" values="-0.693,0.761;-0.693,0.761" begin="0s" />
<animateTransform attributeName="transform" type="translate" additive="sum" fill="freeze" values="300.887,67.662;300.887,67.662" begin="0s" />
<polyline transform="matrix(0.995 -0.106 0.107 0.995 -296.5 -72)" fill="none" stroke="black" stroke-width="2" fill-rule="evenodd" points="0,0 -9,6 -7.882,14.794 -12,21 -26.607,35.635" />
<polyline transform="translate(-308.5,-48)" fill="none" stroke="black" stroke-width="4" fill-rule="evenodd" points="0,0 6,-7 4,-17 8,-21" />
</g>
<path transform="translate(-289.5,-82)" fill="#4B6551" stroke="black" stroke-width="2" fill-rule="evenodd" d="M0,0L-6,2C-6,2,-8,7,-9,8C-10,9,-11,13,-5,14C1,15,6,16,6,16L14,15C15,15,20,15,21,15C22,15,13,-2,13,-2" />
<path transform="matrix(0.968 -0.253 0.254 0.968 -284.516 -72.592)" fill="#4B6551" stroke="black" fill-rule="evenodd" d="M-3.882,4.111C-3.882,4.111,10.351,15.019,25.351,16.019C40.351,17.019,50.351,2.252,50.351,2.252" />
<ellipse transform="matrix(1.336 -0.349 0.52 1.984 -269.638 -76.35)" fill="#D73218" stroke="black" fill-rule="evenodd" cx="0" cy="0" rx="8.5" ry="7.5" />
<ellipse transform="matrix(1.218 -0.319 0.481 1.835 -247.526 -83.35)" fill="#D73218" stroke="black" fill-rule="evenodd" cx="0" cy="0" rx="8.5" ry="7.5" />
<g>
<path transform="translate(-265.5,-69)" fill="none" stroke="black" stroke-width="0.25" fill-rule="evenodd" d="M6,-2C-0.627,-2,-6,-0.209,-6,2" />
<g>
<path transform="translate(-265.5,-78)" fill="none" stroke="black" stroke-width="0.25" fill-rule="evenodd" d="M-4,-10C0.419,-10,4,-1.045,4,10" />
<path transform="translate(-271.5,-74)" fill="none" stroke="black" stroke-width="0.25" fill-rule="evenodd" d="M-2,-9C0.21,-9,2,-0.941,2,9" />
<path transform="translate(-268,-75)" fill="none" stroke="black" stroke-width="0.25" fill-rule="evenodd" d="M-2.5,-11C0.262,-11,2.5,-1.15,2.5,11" />
<path transform="translate(-276,-75)" fill="none" stroke="black" stroke-width="0.25" fill-rule="evenodd" d="M-2.5,-6C0.262,-6,2.5,-0.627,2.5,6" />
</g>
</g>
<g transform="translate(-0.211,-1.89)">
<animateTransform attributeName="transform" type="translate" additive="replace" fill="freeze" values="-300.184,-71.254;-300.184,-71.254" begin="0s" />
<animateTransform attributeName="transform" type="rotate" additive="sum" values="0;-26.756;0" fill="freeze" keyTimes="0;0.48;1" begin="0s" dur="0.25s" repeatCount="indefinite" />
<animateTransform attributeName="transform" type="translate" additive="sum" fill="freeze" values="299.973,69.365;299.973,69.365" begin="0s" />
<polyline transform="translate(-299.5,-68)" fill="none" stroke="black" fill-rule="evenodd" points="0,0 -14,-5 -20,5 -35,1" />
<polyline transform="translate(-300.5,-67)" fill="none" stroke="black" stroke-width="3" fill-rule="evenodd" points="1.494,-0.597 -13,-6 -18,1" />
</g>
<g>
<animateTransform attributeName="transform" type="translate" additive="replace" fill="freeze" values="-282.038,-64.469;-282.038,-64.469" begin="0s" />
<animateTransform attributeName="transform" type="rotate" additive="sum" values="0;25.749;0" fill="freeze" keyTimes="0;0.48;1" begin="0s" dur="0.25s" repeatCount="indefinite" />
<animateTransform attributeName="transform" type="translate" additive="sum" fill="freeze" values="282.039,64.47;282.039,64.47" begin="0s" />
<polyline transform="matrix(0.995 -0.106 0.107 0.995 -279.5 -66)" fill="none" stroke="black" stroke-width="2" fill-rule="evenodd" points="0,0 -9,6 -6,16 -12,21 -14,40" />
<path transform="translate(-290.5,-42)" fill="none" stroke="black" stroke-width="4" fill-rule="evenodd" d="M0.896,1.195L6,-7C7,-7,2,-18,2,-18L7.896,-23.194" />
</g>
</g>
</g>
</g>
<g transform="translate(0.741,30.007)">
<path transform="translate(-249,-90.5)" fill="none" stroke="black" stroke-width="0.25" fill-rule="evenodd" d="M5.5,-1.5C-0.575,-1.5,-5.5,-0.156,-5.5,1.5" />
<path transform="translate(-247,-82.5)" fill="none" stroke="black" stroke-width="0.25" fill-rule="evenodd" d="M7.5,-1.5C-0.784,-1.5,-7.5,-0.156,-7.5,1.5" />
<path transform="translate(-247,-76)" fill="none" stroke="black" stroke-width="0.25" fill-rule="evenodd" d="M5.5,0C-0.575,0,-5.5,0,-5.5,0" />
<path transform="translate(-247,-83)" fill="none" stroke="black" stroke-width="0.25" fill-rule="evenodd" d="M-3.5,-11C0.366,-11,3.5,-1.15,3.5,11" />
<path transform="translate(-242,-82.5)" fill="none" stroke="black" stroke-width="0.25" fill-rule="evenodd" d="M-1.5,-9.5C0.157,-9.5,1.5,-0.993,1.5,9.5" />
<path transform="matrix(1 -0.095 0 1 -251 -80.5)" fill="none" stroke="black" stroke-width="0.25" fill-rule="evenodd" d="M-2.5,-8.5C0.262,-8.5,2.5,-0.888,2.5,8.5" />
</g>
<g transform="translate(1.112,31.859)">
<path transform="translate(-269.5,-83.5)" fill="none" stroke="black" stroke-width="0.25" fill-rule="evenodd" d="M6,-2.5C-0.627,-2.5,-6,-0.261,-6,2.5" />
<path transform="translate(-268,-75.5)" fill="none" stroke="black" stroke-width="0.25" fill-rule="evenodd" d="M7.5,-3.5C-0.784,-3.5,-7.5,-0.365,-7.5,3.5" />
</g>
</g>
</g>
</g>
</g>
</g>
</svg>
