<?xml version="1.0" encoding="UTF-8"?>

<svg viewBox="0.0 0.0 1340.9375 1071.8047" modified="true" despX="206555.7691789418" despY="4798115.679182684" >
  <g geometryType="5" systemId="graticulemobile" stroke-dasharray="" editable="false" fill="none" id="graticulemobile" >
    <path d="M208.22266 1030.3594 L208.22266 234.96875 1049.9141 234.96875 1049.9141 1030.3594 208.22266 1030.3594 z" v1="0" id="297743583079" >
  </path>
</g>
<g l1="id" l2="IdMunicip" geometryType="5" systemId="NP" stroke-dasharray="" editable="false" fill="none" id="Núcleos Población EIEL" >
  <path d="M26.929688 430.98047 L1239.75 69.74219 1240.0 356.75 1290.625 485.78516 1340.9375 1057.1211 1179.2305 1071.8047 603.21094 1036.7891 332.03516 1049.3125 165.73438 998.34766 43.6875 825.0586 32.390625 450.59766 26.929688 430.98047 26.929688 430.98047 z" v1="18412" v2="33001" id="214656673079" stroke-opacity="0.78125" opacity="0.78125" >
</path>
</g>
<g l1="id" l2="IdMunicip" l3="Clave" l4="Código provincia" l5="Código Municipio" l6="Código INE Entidad" l7="Código INE Núcleo" l8="Código Orden" l9="Precisión digitalización" geometryType="11" systemId="CE" stroke-dasharray="" editable="true" fill="none" id="Cementerios" >
  <path d="M930.08594 678.65625 L932.125 679.59766 930.34766 689.2461 930.2422 692.375 905.0625 691.125 903.0469 690.97266 879.9297 684.90625 856.1719 679.53516 863.1875 654.03516 919.90625 665.2422 917.21094 675.28516 930.08594 678.65625 z" v1="5384" v2="33001" v3="CE" v4="33" v5="001" v6="0910" v7="01" v8="005" id="1795143079" fill-opacity="0.78125" stroke-opacity="0.78125" opacity="0.78125" changeType="2" changeTimestamp="1352990587585" >
</path>
<polygon points="264.7461 549.41016 437.51172 547.2539 376.34766 787.625 226.11719 769.3828 " v1="6325" v2="33001" v3="CE" v4="33" v5="001" v6="0001" v7="17" v8="111" v9="DC" id="174270943085" fill-opacity="0.78125" stroke-opacity="0.78125" opacity="0.78125" changeType="2" changeTimestamp="1352990591085" >
</polygon>
</g>
</svg>